<svg xmlns="http://www.w3.org/2000/svg">
	<symbol id="wa" viewBox="0 0 39 39">
		<path fill='#00E676'
			d='M10.7 32.8l.6.3c2.5 1.5 5.3 2.2 8.1 2.2 8.8 0 16-7.2 16-16 0-4.2-1.7-8.3-4.7-11.3s-7-4.7-11.3-4.7c-8.8 0-16 7.2-15.9 16.1 0 3 .9 5.9 2.4 8.4l.4.6-1.6 5.9 6-1.5z'>
		</path>
		<path fill='#FFF'
			d='M32.4 6.4C29 2.9 24.3 1 19.5 1 9.3 1 1.1 9.3 1.2 19.4c0 3.2.9 6.3 2.4 9.1L1 38l9.7-2.5c2.7 1.5 5.7 2.2 8.7 2.2 10.1 0 18.3-8.3 18.3-18.4 0-4.9-1.9-9.5-5.3-12.9zM19.5 34.6c-2.7 0-5.4-.7-7.7-2.1l-.6-.3-5.8 1.5L6.9 28l-.4-.6c-4.4-7.1-2.3-16.5 4.9-20.9s16.5-2.3 20.9 4.9 2.3 16.5-4.9 20.9c-2.3 1.5-5.1 2.3-7.9 2.3zm8.8-11.1l-1.1-.5s-1.6-.7-2.6-1.2c-.1 0-.2-.1-.3-.1-.3 0-.5.1-.7.2 0 0-.1.1-1.5 1.7-.1.2-.3.3-.5.3h-.1c-.1 0-.3-.1-.4-.2l-.5-.2c-1.1-.5-2.1-1.1-2.9-1.9-.2-.2-.5-.4-.7-.6-.7-.7-1.4-1.5-1.9-2.4l-.1-.2c-.1-.1-.1-.2-.2-.4 0-.2 0-.4.1-.5 0 0 .4-.5.7-.8.2-.2.3-.5.5-.7.2-.3.3-.7.2-1-.1-.5-1.3-3.2-1.6-3.8-.2-.3-.4-.4-.7-.5h-1.1c-.2 0-.4.1-.6.1l-.1.1c-.2.1-.4.3-.6.4-.2.2-.3.4-.5.6-.7.9-1.1 2-1.1 3.1 0 .8.2 1.6.5 2.3l.1.3c.9 1.9 2.1 3.6 3.7 5.1l.4.4c.3.3.6.5.8.8 2.1 1.8 4.5 3.1 7.2 3.8.3.1.7.1 1 .2h1c.5 0 1.1-.2 1.5-.4.3-.2.5-.2.7-.4l.2-.2c.2-.2.4-.3.6-.5s.4-.4.5-.6c.2-.4.3-.9.4-1.4v-.7s-.1-.1-.3-.2z'>
		</path>
	</symbol>
	<symbol id="electronic" viewBox="0 0 64 64">
		<path
			d="M44.0001 28H38.0001C37.4697 28 36.9609 27.7893 36.5859 27.4142C36.2108 27.0391 36.0001 26.5304 36.0001 26C36.0001 25.4696 36.2108 24.9609 36.5859 24.5858C36.9609 24.2107 37.4697 24 38.0001 24H44.0001C44.5305 24 45.0392 24.2107 45.4143 24.5858C45.7894 24.9609 46.0001 25.4696 46.0001 26C46.0001 26.5304 45.7894 27.0391 45.4143 27.4142C45.0392 27.7893 44.5305 28 44.0001 28ZM26.0001 24H24.0001V22C24.0001 21.4696 23.7894 20.9609 23.4143 20.5858C23.0392 20.2107 22.5305 20 22.0001 20C21.4697 20 20.9609 20.2107 20.5859 20.5858C20.2108 20.9609 20.0001 21.4696 20.0001 22V24H18.0001C17.4697 24 16.9609 24.2107 16.5859 24.5858C16.2108 24.9609 16.0001 25.4696 16.0001 26C16.0001 26.5304 16.2108 27.0391 16.5859 27.4142C16.9609 27.7893 17.4697 28 18.0001 28H20.0001V30C20.0001 30.5304 20.2108 31.0391 20.5859 31.4142C20.9609 31.7893 21.4697 32 22.0001 32C22.5305 32 23.0392 31.7893 23.4143 31.4142C23.7894 31.0391 24.0001 30.5304 24.0001 30V28H26.0001C26.5305 28 27.0392 27.7893 27.4143 27.4142C27.7894 27.0391 28.0001 26.5304 28.0001 26C28.0001 25.4696 27.7894 24.9609 27.4143 24.5858C27.0392 24.2107 26.5305 24 26.0001 24ZM60.3701 50.1625C59.6163 51.2389 58.636 52.1371 57.498 52.7942C56.36 53.4512 55.092 53.8511 53.7829 53.9657C52.4739 54.0803 51.1556 53.9068 49.9208 53.4575C48.6859 53.0083 47.5644 52.294 46.6351 51.365C46.6051 51.335 46.5751 51.305 46.5476 51.2725L36.6201 40H27.3701L17.4526 51.2725L17.3651 51.365C15.6756 53.0508 13.3868 53.9984 11.0001 54C9.68619 53.9995 8.38832 53.7113 7.19767 53.1558C6.00702 52.6002 4.95245 51.7906 4.10806 50.7839C3.26366 49.7773 2.64992 48.598 2.30994 47.3288C1.96995 46.0597 1.91198 44.7315 2.14009 43.4375C2.13889 43.4259 2.13889 43.4141 2.14009 43.4025L6.23259 22.38C6.84167 18.9127 8.65324 15.7709 11.349 13.5068C14.0447 11.2427 17.4522 10.001 20.9726 10H43.0001C46.5099 10.0056 49.9069 11.2402 52.6013 13.4893C55.2957 15.7385 57.1174 18.8602 57.7501 22.3125C57.7501 22.3275 57.7501 22.3425 57.7501 22.3575L61.8426 43.4C61.8438 43.4116 61.8438 43.4234 61.8426 43.435C62.0544 44.598 62.0333 45.7915 61.7805 46.9463C61.5278 48.1011 61.0484 49.1943 60.3701 50.1625ZM43.0001 36C45.9175 36 48.7154 34.8411 50.7783 32.7782C52.8412 30.7153 54.0001 27.9174 54.0001 25C54.0001 22.0826 52.8412 19.2847 50.7783 17.2218C48.7154 15.1589 45.9175 14 43.0001 14H20.9726C18.39 14.0023 15.8909 14.9153 13.915 16.5784C11.9392 18.2415 10.6131 20.5482 10.1701 23.0925V23.125L6.07509 44.1475C5.89408 45.1897 6.04829 46.2625 6.51554 47.2116C6.98278 48.1606 7.73898 48.937 8.67538 49.4291C9.61178 49.9212 10.6801 50.1036 11.7268 49.9501C12.7734 49.7967 13.7444 49.3152 14.5001 48.575L24.9801 36.6775C25.1677 36.4646 25.3985 36.2941 25.6572 36.1773C25.9158 36.0605 26.1963 36 26.4801 36H43.0001ZM57.9251 44.1475L55.7401 32.8975C54.3962 35.0675 52.5209 36.8587 50.2915 38.1016C48.0622 39.3444 45.5525 39.9979 43.0001 40H41.9501L49.5001 48.5775C50.0693 49.1312 50.7617 49.542 51.5205 49.7762C52.2793 50.0105 53.0828 50.0615 53.8651 49.925C55.1683 49.695 56.3272 48.9577 57.0877 47.8747C57.8483 46.7917 58.1485 45.4514 57.9226 44.1475H57.9251Z"
			fill="#76BF49" />
	</symbol>
	<symbol id="clothes" viewBox="0 0 64 64">
		<path
			d="M54.1625 32.2775L38.98 27.2175C38.1905 26.9538 37.4645 26.5286 36.8481 25.9691C36.2318 25.4096 35.7386 24.7279 35.4 23.9675L29.5975 10.4C29.5975 10.4 29.5975 10.3825 29.5975 10.375C29.1843 9.44824 28.4343 8.71314 27.4995 8.31858C26.5646 7.92403 25.5148 7.89952 24.5625 8.25001L5.6325 15.1225C4.86183 15.4048 4.19625 15.9166 3.72553 16.5889C3.25481 17.2613 3.00158 18.0618 3 18.8825V48C3 49.0609 3.42143 50.0783 4.17157 50.8284C4.92172 51.5786 5.93913 52 7 52H57C58.0609 52 59.0783 51.5786 59.8284 50.8284C60.5786 50.0783 61 49.0609 61 48V41.765C61.0002 39.6661 60.3399 37.6203 59.1127 35.9176C57.8855 34.2148 56.1537 32.9413 54.1625 32.2775ZM25.93 12L27.7075 16.1575L22.3175 18.12C21.8753 18.2805 21.5039 18.5917 21.2685 18.9989C21.033 19.4061 20.9486 19.8832 21.0301 20.3465C21.1116 20.8098 21.3537 21.2295 21.714 21.5319C22.0743 21.8343 22.5296 22 23 22C23.2329 21.9997 23.464 21.9582 23.6825 21.8775L29.2825 19.8425L30.4675 22.61L26.3175 24.11C25.8681 24.2654 25.4888 24.5758 25.2476 24.9855C25.0063 25.3952 24.919 25.8775 25.0011 26.3458C25.0833 26.8142 25.3296 27.2379 25.6959 27.541C26.0622 27.8442 26.5246 28.0069 27 28C27.2329 27.9997 27.464 27.9582 27.6825 27.8775L32.0825 26.2775C32.5872 27.2066 33.2351 28.0502 34.0025 28.7775L30.3175 30.1175C29.8736 30.2768 29.5002 30.5878 29.2634 30.9956C29.0266 31.4034 28.9414 31.8818 29.0231 32.3463C29.1047 32.8108 29.3479 33.2315 29.7096 33.5341C30.0714 33.8367 30.5284 34.0017 31 34C31.2327 33.9993 31.4635 33.9587 31.6825 33.88L38.6825 31.335L52.9 36.0725C53.8051 36.3752 54.625 36.8894 55.2916 37.5724C55.9581 38.2555 56.4521 39.0877 56.7325 40H7V18.8825L25.93 12ZM7 48V44H57V48H7Z"
			fill="#76BF49" />
	</symbol>
	<symbol id="textile" viewBox="0 0 64 64">

		<path
			d="M20.6808 4.34912C17.7846 4.352 14.9766 5.97037 13.8543 8.8895L3.39556 49.6604C1.81143 61.4775 13.5256 60.7531 20.6402 57.8349C30.8179 53.6604 43.3556 54.1833 53.5457 56.8024L54.3519 54.6501C53.4294 54.3204 52.4352 53.9016 51.5704 53.6452C51.6296 53.0997 51.6898 52.5553 51.7501 52.011L54.6298 52.5257L55.0341 50.2632C54.0248 50.0831 53.0157 49.9026 52.0064 49.7223C52.0832 49.0476 52.1611 48.373 52.2402 47.6986L55.0069 48.1084L55.3436 45.8351C54.4001 45.6951 53.4563 45.5554 52.5127 45.4157C52.5697 44.9451 52.6264 44.4745 52.6846 44.0045C53.6364 44.141 54.5884 44.2774 55.5404 44.4136L55.8663 42.1386L52.9708 41.7241C53.0283 41.275 53.1321 40.4756 53.1908 40.027L56.0384 40.3457L56.2941 38.1495C55.3606 38.0452 54.4272 37.9407 53.4938 37.836C53.5917 37.1151 53.7334 36.4382 53.8348 35.7181C54.7936 35.8581 55.7524 35.9986 56.7113 36.1391L57.0001 33.9967C56.0397 33.8559 55.0793 33.7155 54.1188 33.575C54.2178 32.8981 54.2753 32.3089 54.3777 31.6322C55.2619 31.7902 56.1463 31.9482 57.0306 32.106L57.4346 29.8435L54.7278 29.3603C54.8198 28.7758 54.9119 28.1915 55.0066 27.607C55.8788 27.8161 56.7509 28.0254 57.6231 28.2348L58.1596 26C57.2344 25.7778 56.3092 25.5557 55.3841 25.3337C55.4717 24.8137 55.5606 24.2938 55.6506 23.7741C56.5231 23.972 57.3957 24.1697 58.2683 24.3674L58.7763 22.1261C57.8674 21.9199 56.9584 21.7139 56.0494 21.5079C56.1456 20.9745 56.2432 20.441 56.3422 19.9072L58.9349 20.5511L59.4888 18.3207L56.7699 17.6451C56.8626 17.1642 56.9567 16.6831 57.0517 16.2016L59.5867 16.8284L60.1383 14.5972L57.5062 13.9464C57.612 13.4305 57.7191 12.9149 57.8276 12.3996C58.8758 12.7009 59.4688 12.6951 60.5038 13.0234L60.7501 11.057C50.2741 7.71 38.3438 6.9045 30.2261 10.2504C27.1839 24.5049 25.5629 37.9254 21.7221 52.5804C21.2962 54.2054 19.9133 55.3166 18.3043 56.0884C14.9293 57.5394 10.3002 57.8106 7.72556 55.4746C6.35418 54.1821 5.70381 52.0951 6.16718 49.5272C6.45506 47.932 7.52756 46.779 8.77143 46.23C11.2401 45.3457 14.2079 45.6988 16.1331 47.2238C17.6909 48.3865 17.6728 52.0091 15.6478 51.2012C14.4429 50.43 15.4023 49.7199 14.5709 49.029C13.1209 48.1005 11.2684 47.67 9.69943 48.3327C9.00393 48.6396 8.58856 49.0499 8.42868 49.9355C8.06118 51.9718 8.51431 53.06 9.30181 53.8021C11.5934 55.4884 14.9617 55.114 17.3103 54.0161C18.5659 53.4136 19.3449 52.5866 19.4992 51.9977C23.3164 37.433 24.9296 23.9824 28.0358 9.50225C26.5613 5.95925 23.5771 4.34637 20.6808 4.34912Z"
			fill="#76BF49" />

	</symbol>
	<symbol id="furniture" viewBox="0 0 64 64">
		<path
			d="M60 26.5425V18C60 16.9391 59.5786 15.9217 58.8284 15.1716C58.0783 14.4214 57.0609 14 56 14H8C6.93913 14 5.92172 14.4214 5.17157 15.1716C4.42143 15.9217 4 16.9391 4 18V26.5425C3.39289 26.893 2.88856 27.3969 2.53755 28.0037C2.18653 28.6106 2.00116 29.299 2 30V42C2 43.0609 2.42143 44.0783 3.17157 44.8284C3.92172 45.5786 4.93913 46 6 46H8V50C8 50.5304 8.21071 51.0391 8.58579 51.4142C8.96086 51.7893 9.46957 52 10 52C10.5304 52 11.0391 51.7893 11.4142 51.4142C11.7893 51.0391 12 50.5304 12 50V46H52V50C52 50.5304 52.2107 51.0391 52.5858 51.4142C52.9609 51.7893 53.4696 52 54 52C54.5304 52 55.0391 51.7893 55.4142 51.4142C55.7893 51.0391 56 50.5304 56 50V46H58C59.0609 46 60.0783 45.5786 60.8284 44.8284C61.5786 44.0783 62 43.0609 62 42V30C61.9988 29.299 61.8135 28.6106 61.4625 28.0037C61.1114 27.3969 60.6071 26.893 60 26.5425ZM56 26H54C52.9391 26 51.9217 26.4214 51.1716 27.1716C50.4214 27.9217 50 28.9391 50 30V34H34V18H56V26ZM30 18V34H14V30C14 28.9391 13.5786 27.9217 12.8284 27.1716C12.0783 26.4214 11.0609 26 10 26H8V18H30ZM58 42H6V30H10V34C10 35.0609 10.4214 36.0783 11.1716 36.8284C11.9217 37.5786 12.9391 38 14 38H50C51.0609 38 52.0783 37.5786 52.8284 36.8284C53.5786 36.0783 54 35.0609 54 34V30H58V42Z"
			fill="#76BF49" />
	</symbol>
	<symbol id="cosmetic" viewBox="0 0 64 64">
		<path
			d="M5.33325 33.3333C5.33325 32.9797 5.47373 32.6406 5.72378 32.3905C5.97382 32.1405 6.31296 32 6.66659 32H19.9999C20.3535 32 20.6927 32.1405 20.9427 32.3905C21.1928 32.6406 21.3333 32.9797 21.3333 33.3333V48C21.3333 50.1217 20.4904 52.1566 18.9901 53.6569C17.4898 55.1572 15.455 56 13.3333 56C11.2115 56 9.17669 55.1572 7.6764 53.6569C6.17611 52.1566 5.33325 50.1217 5.33325 48V33.3333ZM7.99992 28H18.6666V16C18.6668 15.5454 18.5508 15.0983 18.3296 14.7011C18.1084 14.304 17.7893 13.97 17.4027 13.7309C17.016 13.4917 16.5747 13.3554 16.1206 13.3348C15.6664 13.3143 15.2146 13.4101 14.8079 13.6133L9.47458 16.28C9.0313 16.5015 8.6585 16.8422 8.39802 17.2637C8.13754 17.6853 7.99969 18.1711 7.99992 18.6667V28ZM29.3333 28C29.3333 24.1102 30.8785 20.3796 33.629 17.6291C36.3795 14.8786 40.1101 13.3333 43.9999 13.3333C47.8898 13.3333 51.6203 14.8786 54.3708 17.6291C57.1213 20.3796 58.6666 24.1102 58.6666 28C58.6666 31.8898 57.1213 35.6204 54.3708 38.3709C51.6203 41.1214 47.8898 42.6667 43.9999 42.6667C40.1101 42.6667 36.3795 41.1214 33.629 38.3709C30.8785 35.6204 29.3333 31.8898 29.3333 28ZM41.9999 47.2267C43.3295 47.3681 44.6703 47.3681 45.9999 47.2267V52H51.9999C52.5303 52 53.0391 52.2107 53.4141 52.5858C53.7892 52.9609 53.9999 53.4696 53.9999 54C53.9999 54.5304 53.7892 55.0391 53.4141 55.4142C53.0391 55.7893 52.5303 56 51.9999 56H35.9999C35.4695 56 34.9608 55.7893 34.5857 55.4142C34.2106 55.0391 33.9999 54.5304 33.9999 54C33.9999 53.4696 34.2106 52.9609 34.5857 52.5858C34.9608 52.2107 35.4695 52 35.9999 52H41.9999V47.2267Z"
			fill="#76BF49" />
	</symbol>
	<symbol id="eat" viewBox="0 0 64 64">
		<path fill-rule="evenodd" clip-rule="evenodd"
			d="M45.594 10.681C45.1576 10.6381 44.7174 10.7035 44.3123 10.8714C43.9071 11.0393 43.5497 11.3045 43.2716 11.6436C42.9935 11.9826 42.8032 12.385 42.7178 12.8151C42.6323 13.2452 42.6542 13.6898 42.7816 14.1094C42.9089 14.529 43.1378 14.9107 43.4479 15.2208C44.4894 16.2619 44.4898 17.9502 43.4487 18.9918L38.206 24.2371C37.1649 25.2788 35.4765 25.2792 34.4348 24.2381C33.3931 23.197 33.3927 21.5085 34.4338 20.4669L38.115 16.7839C37.9418 16.4214 37.7956 16.0453 37.6781 15.6584C37.296 14.3996 37.2303 13.0659 37.4867 11.7756C37.7431 10.4853 38.3138 9.27809 39.1482 8.26097C39.9826 7.24386 41.0549 6.44821 42.2702 5.9445C43.4855 5.4408 44.8063 5.24457 46.1155 5.37321C47.4248 5.50185 48.6821 5.95138 49.7762 6.68199C50.8702 7.4126 51.7672 8.40173 52.3876 9.5618C52.6355 10.0253 52.8363 10.5104 52.9879 11.0097C53.4877 11.161 53.9733 11.3614 54.4373 11.609C55.5982 12.2286 56.5883 13.125 57.32 14.2188C58.0516 15.3126 58.5021 16.5699 58.6316 17.8794C58.7611 19.189 58.5656 20.5102 58.0623 21.7261C57.5591 22.9419 56.7637 24.0149 55.7466 24.8499C54.7296 25.6849 53.5223 26.2561 52.2317 26.5129C50.9411 26.7697 49.607 26.7041 48.3478 26.3221C47.961 26.2047 47.5849 26.0586 47.2225 25.8855L43.9314 29.1784C42.8903 30.2201 41.2019 30.2206 40.1602 29.1795C39.1185 28.1384 39.118 26.4499 40.1591 25.4082L45.0125 20.5522C45.5126 20.0519 46.191 19.7707 46.8984 19.7707C47.6059 19.7706 48.2844 20.0517 48.7845 20.552C49.0946 20.8622 49.4765 21.0911 49.8962 21.2185C50.316 21.3458 50.7606 21.3677 51.1908 21.2821C51.621 21.1965 52.0235 21.0061 52.3625 20.7277C52.7015 20.4494 52.9666 20.0918 53.1344 19.6865C53.3021 19.2812 53.3673 18.8408 53.3241 18.4043C53.281 17.9678 53.1308 17.5486 52.8869 17.1841C52.6431 16.8195 52.313 16.5207 51.9261 16.3141C51.5391 16.1076 51.1072 15.9997 50.6685 16C49.9611 16.0005 49.2824 15.7199 48.7819 15.2199C48.2815 14.7199 48.0002 14.0415 48 13.3341C47.9998 12.8956 47.8916 12.4639 47.6847 12.0772C47.4779 11.6905 47.1789 11.3608 46.8142 11.1172C46.4496 10.8737 46.0305 10.7239 45.594 10.681ZM17.0567 28.1244C20.8776 29.6528 25.1045 32.5534 28.9412 36.3914C28.9413 36.3915 28.9415 36.3916 28.9416 36.3917C28.9417 36.3918 28.9418 36.392 28.9419 36.3921C32.7798 40.2287 35.6805 44.455 37.2086 48.2761C37.9708 50.182 38.4415 52.1115 38.4293 53.9115C38.417 55.7276 37.9016 57.6002 36.4829 59.019C35.0648 60.4377 33.1922 60.9521 31.3773 60.9638C29.578 60.9755 27.6489 60.5046 25.7432 59.7423C21.9221 58.2137 17.6949 55.313 13.858 51.4746C10.0201 47.638 7.11944 43.4117 5.59128 39.5905C4.82906 37.6846 4.35843 35.7552 4.37059 33.9552C4.38286 32.1394 4.89808 30.2672 6.31619 28.8485C6.31646 28.8483 6.31673 28.848 6.317 28.8477M11.4571 32.2361C10.5835 32.2417 10.2309 32.4762 10.089 32.6182L10.0882 32.619C9.94429 32.7629 9.7097 33.1176 9.7038 33.9912C9.69779 34.881 9.94084 36.1037 10.5433 37.6101C11.7444 40.6134 14.1768 44.2522 17.6292 47.7034L17.6299 47.7041C21.081 51.1564 24.7205 53.5889 27.724 54.7904C29.2306 55.3931 30.4534 55.6364 31.3428 55.6306C32.2163 55.6249 32.569 55.3905 32.7109 55.2485L32.7117 55.2477C32.8556 55.1038 33.0902 54.7491 33.0961 53.8755C33.1021 52.9857 32.8591 51.763 32.2566 50.2565C31.0555 47.2533 28.6231 43.6145 25.1707 40.1633L25.17 40.1626C21.7189 36.7103 18.0794 34.2777 15.0759 33.0763C13.5692 32.4736 12.3465 32.2303 11.4571 32.2361ZM18.1143 40.7811C19.1557 39.7397 20.8442 39.7397 21.8856 40.7811L24.5522 43.4477C25.5936 44.4891 25.5936 46.1776 24.5522 47.219C23.5108 48.2604 21.8224 48.2604 20.781 47.219L18.1143 44.5523C17.0729 43.5109 17.0729 41.8225 18.1143 40.7811Z"
			fill="#76BF49" />
		<path fill-rule="evenodd" clip-rule="evenodd"
			d="M24.9378 18.6403C31.3293 17.5123 37.7129 18.762 42.1412 23.1914C42.1414 23.1916 42.1416 23.1918 42.1419 23.1921M42.1419 23.1921C46.5712 27.6203 47.8209 34.004 46.693 40.3958C45.5632 46.798 42.0317 53.4714 36.4857 59.0187C35.4445 60.0602 33.756 60.0605 32.7145 59.0192C31.673 57.9779 31.6728 56.2895 32.714 55.248C37.5814 50.3793 40.5232 44.6687 41.4408 39.4689C42.3602 34.259 41.2314 29.823 38.3706 26.9633L38.3699 26.9626C35.5102 24.1018 31.0742 22.9731 25.8647 23.8924C20.6653 24.81 14.9554 27.7517 10.0882 32.619C9.04678 33.6604 7.35834 33.6604 6.31694 32.619C5.27554 31.5776 5.27554 29.8891 6.31694 28.8477C11.863 23.3016 18.5358 19.77 24.9378 18.6403"
			fill="#76BF49" />
	</symbol>
	<symbol id="container" viewBox="0 0 64 64">
		<path
			d="M41.64 0.959967L60.484 12.056C62.66 13.32 63.996 15.644 64 18.16V38.2C64 39.4389 63.675 40.6561 63.0573 41.73C62.4396 42.804 61.5509 43.697 60.48 44.32L29.468 62.404L29.46 62.408C28.3819 63.0327 27.158 63.3618 25.912 63.3618C24.666 63.3618 23.4421 63.0327 22.364 62.408L3.49201 51.4C2.42798 50.7787 1.54554 49.8891 0.932792 48.8201C0.32004 47.7511 -0.00159159 46.5401 5.9221e-06 45.308V25.168C5.9221e-06 23.952 0.312006 22.776 0.880006 21.748L0.896006 21.728L0.936006 21.652C1.53601 20.604 2.41201 19.708 3.49601 19.08L34.564 0.955967C35.6355 0.331187 36.8537 0.00198746 38.094 0.00198746C39.3344 0.00198746 40.5525 0.331187 41.624 0.955967L41.632 0.959967H41.64ZM37.588 6.13597L8.90801 22.864L25.372 32.416C25.5357 32.51 25.7212 32.5595 25.91 32.5595C26.0988 32.5595 26.2843 32.51 26.448 32.416L55.056 15.824L38.596 6.13597C38.4428 6.0475 38.2689 6.00092 38.092 6.00092C37.9151 6.00092 37.7412 6.0475 37.588 6.13597ZM6.51601 46.216L22.916 55.788V37.896C22.728 37.8079 22.5438 37.7119 22.364 37.608L6.00001 28.116V45.308C6.00001 45.688 6.20001 46.032 6.51601 46.216ZM40.916 48.784L47 45.236V27.436L40.916 30.964V48.784ZM29.46 37.608H29.464C29.288 37.712 29.104 37.804 28.92 37.892V55.78L34.92 52.28V34.44L29.46 37.608ZM53 41.736L57.46 39.136H57.468C57.6304 39.0417 57.7652 38.9063 57.8586 38.7434C57.952 38.5804 58.0008 38.3958 58 38.208V21.056L53 23.956V41.736Z"
			fill="#76BF49" />
	</symbol>
	<symbol id="brick" viewBox="0 0 64 64">
		<path
			d="M56 12H8C7.46957 12 6.96086 12.2107 6.58579 12.5858C6.21071 12.9609 6 13.4696 6 14V50C6 50.5304 6.21071 51.0391 6.58579 51.4142C6.96086 51.7893 7.46957 52 8 52H56C56.5304 52 57.0391 51.7893 57.4142 51.4142C57.7893 51.0391 58 50.5304 58 50V14C58 13.4696 57.7893 12.9609 57.4142 12.5858C57.0391 12.2107 56.5304 12 56 12ZM22 36V28H42V36H22ZM10 36V28H18V36H10ZM46 28H54V36H46V28ZM54 24H34V16H54V24ZM30 16V24H10V16H30ZM10 40H30V48H10V40ZM34 48V40H54V48H34Z"
			fill="#76BF49" />
	</symbol>
	<symbol id="plumbing" viewBox="0 0 64 64">
		<path
			d="M58 24H52C52 23.4696 51.7893 22.9609 51.4142 22.5858C51.0391 22.2107 50.5304 22 50 22H34C33.4696 22 32.9609 22.2107 32.5858 22.5858C32.2107 22.9609 32 23.4696 32 24H16V13C16 12.2043 16.3161 11.4413 16.8787 10.8787C17.4413 10.3161 18.2044 10 19 10C19.7031 9.99713 20.3865 10.2326 20.9386 10.668C21.4907 11.1034 21.8789 11.7131 22.04 12.3975C22.1499 12.9129 22.4587 13.3641 22.8994 13.6531C23.3401 13.9421 23.8771 14.0454 24.3936 13.9406C24.9101 13.8359 25.3643 13.5315 25.6576 13.0937C25.951 12.6559 26.0596 12.12 25.96 11.6025C25.6204 10.011 24.743 8.58511 23.4754 7.56472C22.2077 6.54433 20.6273 5.99176 19 6C17.1435 6 15.363 6.7375 14.0503 8.05025C12.7375 9.36301 12 11.1435 12 13V24H6C4.93913 24 3.92172 24.4214 3.17157 25.1716C2.42143 25.9217 2 26.9391 2 28V36C2.00397 39.7118 3.48024 43.2705 6.10489 45.8951C8.72954 48.5198 12.2882 49.996 16 50V54C16 54.5304 16.2107 55.0391 16.5858 55.4142C16.9609 55.7893 17.4696 56 18 56C18.5304 56 19.0391 55.7893 19.4142 55.4142C19.7893 55.0391 20 54.5304 20 54V50H44V54C44 54.5304 44.2107 55.0391 44.5858 55.4142C44.9609 55.7893 45.4696 56 46 56C46.5304 56 47.0391 55.7893 47.4142 55.4142C47.7893 55.0391 48 54.5304 48 54V50C51.7118 49.996 55.2705 48.5198 57.8951 45.8951C60.5198 43.2705 61.996 39.7118 62 36V28C62 26.9391 61.5786 25.9217 60.8284 25.1716C60.0783 24.4214 59.0609 24 58 24ZM48 26V34H36V26H48ZM58 36C58 37.3132 57.7413 38.6136 57.2388 39.8268C56.7362 41.0401 55.9997 42.1425 55.0711 43.0711C54.1425 43.9997 53.0401 44.7362 51.8268 45.2388C50.6136 45.7413 49.3132 46 48 46H16C13.3478 46 10.8043 44.9464 8.92893 43.0711C7.05357 41.1957 6 38.6522 6 36V28H32V36C32 36.5304 32.2107 37.0391 32.5858 37.4142C32.9609 37.7893 33.4696 38 34 38H50C50.5304 38 51.0391 37.7893 51.4142 37.4142C51.7893 37.0391 52 36.5304 52 36V28H58V36Z"
			fill="#76BF49" />
	</symbol>
	<symbol id="appliances" viewBox="0 0 64 64">

		<path
			d="M21.3333 58.6667C19.8667 58.6667 18.6107 58.144 17.5653 57.0987C16.52 56.0533 15.9982 54.7982 16 53.3333V50.6667C16 48.5778 16.456 46.6444 17.368 44.8667C18.28 43.0889 19.4684 41.6 20.9333 40.4L19.2667 29.3333H13.3333C11.8667 29.3333 10.6107 28.8107 9.56534 27.7653C8.52 26.72 7.99823 25.4649 8 24V13.3333C8 11.8667 8.52267 10.6107 9.568 9.56533C10.6133 8.51999 11.8684 7.99822 13.3333 7.99999H26.6667V5.33333H37.3333V7.99999H47.9333L43.0667 40.4C44.5333 41.6 45.7227 43.0889 46.6347 44.8667C47.5467 46.6444 48.0018 48.5778 48 50.6667V53.3333C48 54.8 47.4773 56.056 46.432 57.1013C45.3867 58.1467 44.1316 58.6684 42.6667 58.6667H21.3333ZM18.4667 24L16.8667 13.3333H13.3333V24H18.4667ZM32 50.6667C32.7556 50.6667 33.3893 50.4107 33.9013 49.8987C34.4133 49.3867 34.6685 48.7538 34.6667 48C34.6667 47.2444 34.4107 46.6107 33.8987 46.0987C33.3867 45.5867 32.7538 45.3316 32 45.3333C31.2445 45.3333 30.6107 45.5893 30.0987 46.1013C29.5867 46.6133 29.3316 47.2462 29.3333 48C29.3333 48.7556 29.5893 49.3893 30.1013 49.9013C30.6133 50.4133 31.2462 50.6684 32 50.6667ZM25.8667 37.3333H38.1333L41.7333 13.3333H22.2667L25.8667 37.3333Z"
			fill="#76BF49" />

	</symbol>
	<symbol id="windows" viewBox="0 0 80 80">
		<path
			d="M8 80C5.8 80 3.91667 79.2167 2.35 77.65C0.783333 76.0833 0 74.2 0 72V36C0 33.8 0.783333 31.9167 2.35 30.35C3.91667 28.7833 5.8 28 8 28H16V8C16 5.8 16.7833 3.91667 18.35 2.35C19.9167 0.783333 21.8 0 24 0H72C74.2 0 76.0833 0.783333 77.65 2.35C79.2167 3.91667 80 5.8 80 8V44C80 46.2 79.2167 48.0833 77.65 49.65C76.0833 51.2167 74.2 52 72 52H64V72C64 74.2 63.2167 76.0833 61.65 77.65C60.0833 79.2167 58.2 80 56 80H8ZM8 72H56V44H8V72ZM64 44H72V16H24V28H56C58.2 28 60.0833 28.7833 61.65 30.35C63.2167 31.9167 64 33.8 64 36V44Z"
			fill="#171A2B" />
	</symbol>
	<symbol id="secure" viewBox="0 0 80 80">
		<path
			d="M34.75 67.75L63 39.5L55.875 32.375L34.75 53.5L24.25 43L17.125 50.125L34.75 67.75ZM40 100C28.4167 97.0833 18.8542 90.4375 11.3125 80.0625C3.77083 69.6875 0 58.1667 0 45.5V15L40 0L80 15V45.5C80 58.1667 76.2292 69.6875 68.6875 80.0625C61.1458 90.4375 51.5833 97.0833 40 100ZM40 89.5C48.6667 86.75 55.8333 81.25 61.5 73C67.1667 64.75 70 55.5833 70 45.5V21.875L40 10.625L10 21.875V45.5C10 55.5833 12.8333 64.75 18.5 73C24.1667 81.25 31.3333 86.75 40 89.5Z"
			fill="#171A2B" />
	</symbol>
	<symbol id="lists" viewBox="0 0 80 80">
		<path
			d="M13.3333 80C9.62963 80 6.48148 78.8333 3.88889 76.5C1.2963 74.1667 0 71.3333 0 68V56H13.3333V0H80V68C80 71.3333 78.7037 74.1667 76.1111 76.5C73.5185 78.8333 70.3704 80 66.6667 80H13.3333ZM66.6667 72C67.9259 72 68.9815 71.6167 69.8333 70.85C70.6852 70.0833 71.1111 69.1333 71.1111 68V8H22.2222V56H62.2222V68C62.2222 69.1333 62.6481 70.0833 63.5 70.85C64.3519 71.6167 65.4074 72 66.6667 72ZM26.6667 28V20H66.6667V28H26.6667ZM26.6667 40V32H66.6667V40H26.6667ZM13.3333 72H53.3333V64H8.88889V68C8.88889 69.1333 9.31481 70.0833 10.1667 70.85C11.0185 71.6167 12.0741 72 13.3333 72ZM13.3333 72H8.88889H53.3333H13.3333Z"
			fill="#171A2B" />
	</symbol>
</svg>