<svg width="130" height="130" viewBox="0 0 130 130" fill="none" xmlns="http://www.w3.org/2000/svg">
<rect width="130" height="130" rx="65" fill="white"/>
<g clip-path="url(#clip0_127_23)">
<path d="M82.8406 109C82.7844 109 82.7262 108.997 82.67 108.99L14.4584 101.813C13.5639 101.719 12.9156 100.917 13.0089 100.02C13.1022 99.1243 13.9018 98.4715 14.7978 98.5681L82.7601 105.718L113.63 99.4257C114.51 99.2467 115.371 99.8158 115.551 100.699C115.729 101.582 115.161 102.443 114.28 102.624L83.1639 108.966C83.0593 108.989 82.9499 109 82.8406 109Z" fill="#2D3F4F"/>
<path d="M115.575 37.3101C115.575 37.3052 115.575 37.2988 115.574 37.2939C115.567 37.2359 115.557 37.1795 115.544 37.1231C115.541 37.1118 115.538 37.1005 115.535 37.0892C115.524 37.0457 115.512 37.0038 115.498 36.9603C115.491 36.941 115.483 36.9216 115.477 36.9039C115.464 36.87 115.451 36.8362 115.437 36.8039C115.427 36.7846 115.417 36.7636 115.408 36.7443C115.392 36.7137 115.376 36.6814 115.358 36.6524C115.347 36.6347 115.335 36.6154 115.324 36.5976C115.305 36.567 115.282 36.5364 115.26 36.5057C115.248 36.4896 115.237 36.4751 115.226 36.4606C115.2 36.4267 115.171 36.3961 115.142 36.3655C115.133 36.3558 115.123 36.3446 115.113 36.3333C115.073 36.293 115.031 36.2543 114.988 36.2172C114.942 36.1801 114.891 36.1431 114.841 36.1092C114.835 36.1044 114.827 36.1012 114.821 36.0963C114.779 36.0705 114.737 36.0464 114.694 36.0238C114.674 36.0141 114.655 36.0061 114.636 35.998C114.61 35.9867 114.584 35.9722 114.557 35.9626L77.2858 21.1158C76.9913 20.9981 76.668 20.9691 76.3559 21.0335L45.0307 27.4842C44.1491 27.6663 43.5828 28.5287 43.7632 29.4103C43.9449 30.2937 44.8056 30.861 45.6856 30.6805L76.5344 24.3282L108.259 36.9667L82.5174 42.1698C81.7565 42.3229 81.2095 42.9951 81.2111 43.772L81.3284 99.4277C81.33 99.9179 81.5505 100.382 81.93 100.69C82.2229 100.928 82.5866 101.056 82.9566 101.056C83.0659 101.056 83.1768 101.045 83.2862 101.022L114.285 94.6131C115.041 94.4568 115.585 93.7893 115.585 93.0157V37.4777C115.585 37.4745 115.585 37.4696 115.585 37.4664C115.583 37.4148 115.581 37.3616 115.575 37.3101ZM112.329 91.6843L84.5829 97.4211L84.472 45.1018L112.329 39.4715V91.6843Z" fill="#2D3F4F"/>
<path d="M31.3096 96.5284C31.2533 96.5284 31.1954 96.5249 31.1375 96.5185L14.6142 94.7665C13.7857 94.678 13.1567 93.9782 13.1567 93.1417L13.205 47.955C13.205 47.4005 13.4865 46.8847 13.9515 46.5849L25.1594 39.3525C25.9155 38.8641 26.9226 39.0834 27.41 39.8409C27.8975 40.5985 27.6787 41.6075 26.9226 42.0959L16.4595 48.8462L16.4144 91.675L29.6784 93.0804V82.131C29.6784 81.2302 30.4071 80.5001 31.3064 80.5001C32.2057 80.5001 32.9344 81.2302 32.9344 82.131V94.8937C32.9344 95.3564 32.7382 95.7964 32.3955 96.106C32.0995 96.3798 31.7102 96.5284 31.3096 96.5284Z" fill="#F1592A"/>
<path d="M54.4646 98.5948C54.4099 98.5948 54.355 98.5916 54.2988 98.5868L36.7959 96.8186C35.9015 96.7284 35.2483 95.929 35.3384 95.0311C35.4285 94.1348 36.2264 93.4804 37.1224 93.5708L54.6254 95.3388C55.52 95.4292 56.1731 96.2287 56.083 97.1266C55.9993 97.9679 55.2915 98.5948 54.4646 98.5948Z" fill="#F1592A"/>
<path d="M31.8906 56.6799C31.3083 56.6799 30.7436 56.3655 30.4508 55.8127C30.0293 55.0164 30.3302 54.03 31.1249 53.606L44.5947 46.4381C45.0244 46.2092 45.5343 46.185 45.9846 46.3736L61.3351 52.7823C62.1652 53.129 62.5579 54.0847 62.2119 54.9164C61.8659 55.7482 60.912 56.1415 60.0819 55.7948L45.4424 49.6828L32.6516 56.4879C32.4102 56.6186 32.148 56.6799 31.8906 56.6799Z" fill="#F1592A"/>
<path d="M60.6449 79.0981C60.4019 79.0981 60.1592 79.0434 59.9323 78.9338L45.3106 71.8077L32.1898 78.0408C31.6863 78.2794 31.0959 78.2456 30.6245 77.9474C30.1531 77.6506 29.8668 77.1317 29.8635 76.5741L29.7896 61.3517C29.7847 60.4506 30.5103 59.7173 31.4096 59.7125C32.3104 59.7077 33.0408 60.4346 33.0456 61.3354L33.1084 73.992L44.6221 68.5213C45.0692 68.3085 45.5873 68.3117 46.0313 68.5277L59.0249 74.8605L59.0669 60.7536C59.0701 59.8544 59.7987 59.1274 60.6948 59.1274H60.6996C61.5988 59.1306 62.3262 59.8624 62.3227 60.7634L62.2747 77.4701C62.2731 78.0312 61.9834 78.5533 61.5072 78.8498C61.2433 79.016 60.9441 79.0981 60.6449 79.0981Z" fill="#F1592A"/>
<path d="M82.9579 101.054C82.9079 101.054 82.858 101.053 82.8065 101.047L60.558 98.9779C59.7295 98.9005 59.0906 98.2091 59.0811 97.3757L58.8976 83.4541C58.8865 82.5531 59.6054 81.8133 60.5049 81.8021C61.4042 81.7923 62.1424 82.5112 62.1537 83.4123L62.3177 95.8653L81.3265 97.6336L81.2156 44.8712L66.4105 38.8864C65.577 38.5495 65.1732 37.5985 65.5097 36.7635C65.8459 35.9286 66.7948 35.5241 67.6283 35.8609L83.4501 42.2567C84.0644 42.505 84.4683 43.1014 84.4683 43.7655L84.5858 99.4213C84.5874 99.8805 84.3943 100.319 84.0549 100.629C83.7541 100.902 83.3633 101.054 82.9579 101.054Z" fill="#F1592A"/>
<path d="M31.8902 39.2169C31.3497 39.2169 30.8204 38.9477 30.5115 38.4545C30.0321 37.6921 30.2606 36.6847 31.0215 36.2044L44.4913 27.7018C44.9321 27.4246 45.4774 27.373 45.9602 27.5664L61.3107 33.677C62.1455 34.009 62.554 34.9584 62.2229 35.7949C61.8914 36.6315 60.9438 37.0409 60.109 36.7089L45.5274 30.9046L32.7573 38.9655C32.487 39.1347 32.1878 39.2169 31.8902 39.2169Z" fill="#F1592A"/>
</g>
<defs>
<clipPath id="clip0_127_23">
<rect width="103" height="88" fill="white" transform="translate(13 21)"/>
</clipPath>
</defs>
</svg>
