<svg width="120" height="120" viewBox="0 0 120 120" fill="none" xmlns="http://www.w3.org/2000/svg">
<path d="M39.094 54.1508L43.7832 67.1728C48.2536 66.8952 52.7068 66.4728 57.1428 65.9052L46.3764 32.4H0V65.2412C4.09368 65.8724 8.85796 66.476 14.1943 66.9156V64.3336H22.391C25.3265 64.3336 27.2491 65.7368 28.14 67.566C28.9653 67.566 29.8047 67.566 30.6488 67.566C34.5408 67.566 38.425 67.4568 42.3016 67.2384C41.3916 63.9968 39.2066 60.6476 34.7706 58.4164C36.6037 57.4536 38.1086 55.9684 39.094 54.1508ZM22.391 54.188H14.1943V44.2764H22.391C29.4858 44.2764 29.2514 54.188 22.391 54.188Z" fill="#76BF49"/>
<path d="M50 84.104L51.3904 88H64.1732L66.6668 80.8716C61.1792 82.2176 55.6236 83.2952 50 84.104Z" fill="#76BF49"/>
<path d="M44.2856 69.3456L48.5668 81.058L48.8476 81.8224C55.2096 80.9588 61.52 79.7648 67.752 78.244L68.2708 76.8464L72.3808 65.6648C63.108 67.4912 53.7228 68.7208 44.2856 69.3456Z" fill="black"/>
<path d="M115.957 61.388C112.589 63.35 108.972 65.2932 105.083 67.2136C107.105 70.5656 105.313 75.74 99.5568 75.74H91.338V73.2992C86.672 75.1588 81.9404 76.8048 77.1428 78.2368V88H99.9228C112.307 88 118.378 82.6068 119.799 73.6944C120.371 70.384 119.907 65.2792 115.957 61.388Z" fill="#76BF49"/>
<path d="M117.143 51.8836C104.244 57.3904 90.8524 61.6968 77.1428 64.7472V75.6444C82.1224 74.126 86.8404 72.4504 91.2916 70.678V64.3364H99.4692C100.128 64.332 100.785 64.4112 101.424 64.572C102.088 64.7352 102.721 65.008 103.294 65.3796C107.095 63.5332 110.644 61.6408 113.931 59.7624C113.498 59.4604 113.05 59.18 112.589 58.9224C112.341 58.784 112.084 58.6456 111.822 58.5164C114.754 57.0256 116.432 54.2424 117.143 51.8836Z" fill="black"/>
<path d="M117.618 48.9696C117.739 38.6031 110.015 32.4 99.5217 32.4H69.3321L58.5717 65.6648C63.5121 65.0084 68.4305 64.1728 73.3273 63.1584L77.1821 52.47V62.3276C91.0569 59.172 104.597 54.6988 117.618 48.9696ZM91.3393 44.2508H99.5217C106.6 44.2508 106.366 54.1412 99.5217 54.1412H91.3393V44.2508Z" fill="#76BF49"/>
<path d="M42.7584 69.5236C38.5375 69.7728 34.5088 69.8808 30.6537 69.8808H28.7167C28.8012 72.7824 26.7141 75.7264 22.3946 75.7264H14.1966V69.2232C8.86876 68.7912 4.11312 68.1948 0 67.5656V82.2484C7.91536 83.2248 15.8828 83.7172 23.8579 83.7228C28.7417 83.7228 33.4849 83.5416 38.0873 83.1784C38.289 82.9812 38.4812 82.784 38.6688 82.5772C40.8028 80.2296 42.0972 77.2292 42.66 73.656C42.8844 72.2896 42.9172 70.8992 42.7584 69.5236Z" fill="black"/>
<path d="M0 84.6736V88H22.7092C27.4762 88 31.304 87.2236 34.2857 85.7556C30.8023 85.938 27.2986 86.0308 23.7747 86.0336C15.8286 86.038 7.8894 85.584 0 84.6736Z" fill="#76BF49"/>
</svg>
